<svg xmlns="http://www.w3.org/2000/svg" width="512" height="512" viewBox="0 0 512 512" version="1.1">
	<path d="M 0 234.502 L 0 469.004 256.250 468.752 L 512.500 468.500 512.752 234.250 L 513.004 0 256.502 0 L 0 0 0 234.502 M 0.492 235 C 0.492 363.975, 0.608 416.737, 0.750 352.250 C 0.892 287.762, 0.892 182.237, 0.750 117.750 C 0.608 53.262, 0.492 106.025, 0.492 235 M 249.650 71.311 C 238.732 82.788, 202.115 119.971, 153.942 168.500 C 88.143 234.785, 89.391 233.229, 80.900 259.500 C 78.075 268.241, 77.614 271.202, 77.243 283.022 C 76.797 297.237, 76.813 297.343, 82.496 316.500 C 87.678 333.969, 99.786 351.945, 114.911 364.622 C 129.781 377.086, 147.461 384.531, 168.222 387.073 C 186.087 389.260, 208.272 384.279, 221.888 375.023 C 229.907 369.572, 234.197 368.631, 235.965 371.934 C 237.550 374.896, 237.248 376.787, 234.051 383.920 C 232.429 387.539, 230.619 392.982, 230.028 396.016 C 229.438 399.051, 228.178 402.703, 227.228 404.132 C 226.277 405.561, 224.211 408.704, 222.635 411.116 C 218.311 417.734, 212.275 423.669, 204.471 428.980 C 195.698 434.949, 194.872 435.956, 194.256 441.425 C 193.835 445.158, 194.137 446.228, 196.191 448.282 L 198.624 450.715 256.356 450.891 L 314.087 451.067 317.043 448.110 C 322.740 442.414, 320.382 436.374, 309.642 429.160 C 296.258 420.169, 285.088 405.794, 281.931 393.500 C 280.943 389.650, 279.104 383.721, 277.844 380.325 C 275.570 374.195, 275.568 374.135, 277.504 371.996 C 280.086 369.143, 283.387 369.842, 290.776 374.806 C 304.888 384.288, 327.245 389.275, 345.500 387.013 C 371.579 383.781, 389.492 374.606, 409.275 354.345 C 418.977 344.408, 424.548 335.061, 430.558 318.638 C 435.345 305.557, 436.341 298.342, 435.754 281 C 435.358 269.306, 434.831 265.339, 433.033 260.500 C 431.807 257.200, 429.817 251.788, 428.612 248.473 C 426.344 242.238, 418.032 228.857, 411.545 221 C 409.501 218.525, 374.485 183.088, 333.732 142.250 C 264.483 72.859, 259.410 68, 256.217 68 C 253.650 68, 252.017 68.824, 249.650 71.311" stroke="none" fill="black" fill-rule="evenodd"/>
</svg>